<svg width="246" height="314" viewBox="0 0 246 314" fill="none" xmlns="http://www.w3.org/2000/svg">
<path d="M118.423 0.149153C135.128 0.149153 151.087 2.88353 166.3 8.35228C181.513 13.7216 195.085 22.3224 207.017 34.1548C218.949 45.8878 228.345 61.3494 235.206 80.5398C242.067 99.7301 245.497 123.146 245.497 150.788C245.597 176.243 242.614 199.063 236.548 219.247C230.483 239.332 221.783 256.435 210.448 270.554C199.212 284.673 185.689 295.462 169.879 302.919C154.07 310.277 136.421 313.956 116.932 313.956C95.4546 313.956 76.5129 309.83 60.1066 301.577C43.7998 293.224 30.7245 281.989 20.8808 267.869C11.1365 253.75 5.31969 237.94 3.43049 220.44H76.0654C78.3524 230.582 83.1748 238.239 90.5328 243.409C97.8907 248.48 106.69 251.016 116.932 251.016C135.625 251.016 149.595 242.912 158.842 226.705C168.09 210.497 172.713 188.473 172.713 160.632H170.923C166.648 169.78 160.582 177.635 152.727 184.197C144.972 190.76 135.973 195.781 125.732 199.261C115.49 202.741 104.702 204.482 93.3666 204.482C75.0711 204.482 58.9134 200.305 44.8936 191.953C30.9731 183.601 20.0356 172.116 12.0811 157.5C4.22594 142.884 0.248669 126.179 0.149237 107.386C0.0498052 86.3068 4.97168 67.7131 14.9149 51.6051C24.858 35.3977 38.7288 22.7699 56.5271 13.7216C74.3254 4.57387 94.9575 0.0497181 118.423 0.149153ZM118.871 56.8253C109.723 56.8253 101.57 58.9631 94.4106 63.2386C87.3509 67.5142 81.7828 73.2813 77.7061 80.5398C73.6294 87.7983 71.6407 95.9517 71.7402 105C71.8396 114.048 73.8779 122.202 77.8552 129.46C81.9319 136.719 87.4504 142.486 94.4106 146.761C101.47 151.037 109.524 153.175 118.573 153.175C125.334 153.175 131.598 151.932 137.365 149.446C143.132 146.96 148.154 143.53 152.429 139.155C156.705 134.68 160.036 129.51 162.422 123.643C164.908 117.777 166.101 111.513 166.002 104.851C165.902 96.0014 163.814 87.9475 159.737 80.6889C155.661 73.4304 150.043 67.6634 142.884 63.3878C135.824 59.0128 127.82 56.8253 118.871 56.8253Z" fill="url(#paint0_linear_2836_1221)"/>
<defs>
<linearGradient id="paint0_linear_2836_1221" x1="122.409" y1="-264.22" x2="122.409" y2="309.78" gradientUnits="userSpaceOnUse">
<stop offset="0.615385" stop-color="#FF2424"/>
<stop offset="1" stop-color="#FF2424" stop-opacity="0"/>
</linearGradient>
</defs>
</svg>
